<?xml version="1.0" encoding="iso-8859-1"?>
<!-- Uploaded to: SVG Repo, www.svgrepo.com, Generator: SVG Repo Mixer Tools -->
<svg fill="#000000" height="800px" width="800px" version="1.1" id="Layer_1" xmlns="http://www.w3.org/2000/svg" xmlns:xlink="http://www.w3.org/1999/xlink" 
	 viewBox="0 0 512 512" xml:space="preserve">
<g>
	<g>
		<path d="M295.472,296.802l-94.071-94.071c-9.419-9.43-21.956-14.616-35.272-14.616c-13.327,0-25.864,5.197-35.272,14.616
			L14.616,318.963C5.197,328.382,0,340.919,0,354.247c0,13.317,5.186,25.853,14.616,35.272l94.059,94.07
			c9.419,9.419,21.956,14.616,35.283,14.616c13.317,0,25.853-5.186,35.272-14.616l116.243-116.243
			c9.43-9.419,14.616-21.956,14.616-35.272C310.088,318.747,304.891,306.21,295.472,296.802z M177.888,296.802l-69.202,69.202
			c-3.248,3.248-7.503,4.872-11.757,4.872c-4.254,0-8.51-1.624-11.757-4.872c-6.497-6.495-6.497-17.02-0.001-23.515l69.202-69.202
			c6.495-6.495,17.02-6.495,23.515,0C184.383,279.782,184.383,290.307,177.888,296.802z"/>
	</g>
</g>
<g>
	<g>
		<path d="M413.057,132.176l-47.03-47.03c-19.433-19.466-51.101-19.466-70.556,0l-83.484,83.484
			c4.606,3.061,8.945,6.593,12.94,10.596l94.06,94.06c3.999,3.991,7.528,8.327,10.586,12.929l83.484-83.485
			c9.42-9.418,14.616-21.955,14.616-35.283C427.673,154.132,422.487,141.595,413.057,132.176z"/>
	</g>
</g>
<g>
	<g>
		<path d="M507.129,38.106c-32.415-32.414-85.172-32.414-117.586,0.001l-12.941,12.944c4.614,3.062,8.961,6.596,12.963,10.603
			l47.008,47.008c3.999,3.991,7.528,8.327,10.586,12.929l59.97-59.97C513.624,55.125,513.624,44.601,507.129,38.106z"/>
	</g>
</g>
</svg>